<svg xmlns="http://www.w3.org/2000/svg"
    xmlns:xlink="http://www.w3.org/1999/xlink"
    xmlns:lucid="lucid" width="977.77" height="1129.86">
    <g transform="translate(-279.5 -279.5)" lucid:page-tab-id=".Q4MUjXso07N">
        <path d="M0 0h1500v1500H0z" fill="#fff"/>
        <path d="M683.23 308a8 8 0 0 1 8-8h537.54a8 8 0 0 1 8 8v1072.86a8 8 0 0 1-8 8H691.23a8 8 0 0 1-8-8z" stroke="#000" fill-opacity="0"/>
        <use xlink:href="#a" transform="matrix(1,0,0,1,691.22912637421,308) translate(177.97530864197535 17.95555555555555)"/>
        <use xlink:href="#b" transform="matrix(1,0,0,1,691.22912637421,308) translate(298.98827160493823 17.95555555555555)"/>
        <path d="M943.23 680c0 33.14-35.82 60-80 60s-80-26.86-80-60 35.82-60 80-60 80 26.86 80 60z" stroke="#333" fill="#fff"/>
        <use xlink:href="#c" transform="matrix(1,0,0,1,807.22912637421,644) translate(14.075000000000003 39.6)"/>
        <use xlink:href="#d" transform="matrix(1,0,0,1,807.22912637421,644) translate(52.975 39.6)"/>
        <path d="M381.66 815.3L753.36 468M381.67 815.28l-2.57 2.4" stroke="#3a414a" fill="none"/>
        <path d="M754.16 467.92l-.48.45-.65-.7.27-.25z" stroke="#3a414a" stroke-width=".05" fill="#3a414a"/>
        <path d="M381.77 815.46l406.36-112.6M381.8 815.45l-3.4.94" stroke="#3a414a" fill="none"/>
        <path d="M788.83 703.14l-.6.17-.24-.9.4-.12z" stroke="#3a414a" stroke-width=".05" fill="#3a414a"/>
        <path d="M883.23 420c0 33.14-35.82 60-80 60s-80-26.86-80-60 35.82-60 80-60 80 26.86 80 60z" stroke="#333" fill="#fff"/>
        <use xlink:href="#e" transform="matrix(1,0,0,1,747.22912637421,384) translate(4.125 18)"/>
        <use xlink:href="#f" transform="matrix(1,0,0,1,747.22912637421,384) translate(52.525 18)"/>
        <use xlink:href="#g" transform="matrix(1,0,0,1,747.22912637421,384) translate(69.525 18)"/>
        <use xlink:href="#h" transform="matrix(1,0,0,1,747.22912637421,384) translate(13.850000000000001 39.6)"/>
        <use xlink:href="#i" transform="matrix(1,0,0,1,747.22912637421,384) translate(34.8 39.6)"/>
        <use xlink:href="#j" transform="matrix(1,0,0,1,747.22912637421,384) translate(14.874999999999993 61.2)"/>
        <path d="M421.2 680.4c0 22.3-18.1 40.4-40.4 40.4-22.32 0-40.4-18.1-40.4-40.4 0-22.3 18.08-40.4 40.4-40.4 22.3 0 40.4 18.1 40.4 40.4z" stroke="#333" fill="#fff"/>
        <path d="M380.8 720.8v124.23a22.5 22.5 0 0 0 2.98 11.2l77.8 135.48m-80.8-140.67L300 991.7m0-230.5h161.6" stroke="#333" fill="none"/>
        <path d="M300 646a6 6 0 0 1 6-6h149.6a6 6 0 0 1 6 6v361.7a6 6 0 0 1-6 6H306a6 6 0 0 1-6-6z" fill="none"/>
        <use xlink:href="#k" transform="matrix(1,0,0,1,220,991.7134995995989) translate(129.58024691358025 17.77777777777778)"/>
        <path d="M1040 540c0 33.14-35.82 60-80 60s-80-26.86-80-60 35.82-60 80-60 80 26.86 80 60z" stroke="#333" fill="#fff"/>
        <use xlink:href="#l" transform="matrix(1,0,0,1,904,504) translate(8.074999999999996 39.6)"/>
        <use xlink:href="#m" transform="matrix(1,0,0,1,904,504) translate(56.025 39.6)"/>
        <path d="M381.73 815.24l497.33-275M381.74 815.23l-3.07 1.7" stroke="#3a414a" fill="none"/>
        <path d="M879.5 540v.54l-.22.12-.46-.83.7-.38z" stroke="#3a414a" stroke-width=".05" fill="#3a414a"/>
        <path d="M1143.23 780c0 33.14-35.82 60-80 60s-80-26.86-80-60 35.82-60 80-60 80 26.86 80 60z" stroke="#333" fill="#fff"/>
        <use xlink:href="#n" transform="matrix(1,0,0,1,1007.22912637421,744) translate(8.924999999999997 28.799999999999997)"/>
        <use xlink:href="#o" transform="matrix(1,0,0,1,1007.22912637421,744) translate(63.875 28.799999999999997)"/>
        <use xlink:href="#p" transform="matrix(1,0,0,1,1007.22912637421,744) translate(27.074999999999996 50.4)"/>
        <path d="M982.57 785.53L381.8 815.68" stroke="#3a414a" fill="none"/>
        <path d="M983.12 785.98l-.53.02-.06-.95.5-.02z" stroke="#3a414a" stroke-width=".05" fill="#3a414a"/>
        <path d="M381.8 815.68l-3.5.18" stroke="#3a414a" fill="none"/>
        <path d="M1023.23 1100c0 33.14-35.82 60-80 60s-80-26.86-80-60 35.82-60 80-60 80 26.86 80 60z" stroke="#333" fill="#fff"/>
        <use xlink:href="#q" transform="matrix(1,0,0,1,887.22912637421,1064) translate(3.049999999999997 39.6)"/>
        <use xlink:href="#r" transform="matrix(1,0,0,1,887.22912637421,1064) translate(60 39.6)"/>
        <path d="M875.18 1066.94L381.74 816.2" stroke="#3a414a" fill="none"/>
        <path d="M875.95 1066.8l-.64.74-.34-.18.43-.84z" stroke="#3a414a" stroke-width=".05" fill="#3a414a"/>
        <path d="M381.75 816.22l-3.13-1.6" stroke="#3a414a" fill="none"/>
        <path d="M963.23 960c0 33.14-35.82 60-80 60s-80-26.86-80-60 35.82-60 80-60 80 26.86 80 60z" stroke="#333" fill="#fff"/>
        <use xlink:href="#s" transform="matrix(1,0,0,1,827.22912637421,924) translate(9.549999999999997 39.6)"/>
        <use xlink:href="#t" transform="matrix(1,0,0,1,827.22912637421,924) translate(58.5 39.6)"/>
        <path d="M963.23 1260c0 33.14-35.82 60-80 60s-80-26.86-80-60 35.82-60 80-60 80 26.86 80 60z" stroke="#333" fill="#fff"/>
        <use xlink:href="#u" transform="matrix(1,0,0,1,827.22912637421,1224) translate(8.049999999999997 39.6)"/>
        <use xlink:href="#v" transform="matrix(1,0,0,1,827.22912637421,1224) translate(48 39.6)"/>
        <path d="M829.97 1214.07L381.67 816.5" stroke="#3a414a" fill="none"/>
        <path d="M830.74 1214.13l-.8.55-.3-.26.63-.7z" stroke="#3a414a" stroke-width=".05" fill="#3a414a"/>
        <path d="M381.68 816.5l-2.63-2.32M802.26 959.84l-420.5-144.2" stroke="#3a414a" fill="none"/>
        <path d="M802.74 959.5v1l-.65-.22.3-.9z" stroke="#3a414a" stroke-width=".05" fill="#3a414a"/>
        <path d="M381.78 815.65l-3.32-1.14" stroke="#3a414a" fill="none"/>
        <path d="M1123.23 420c0 33.14-35.82 60-80 60s-80-26.86-80-60 35.82-60 80-60 80 26.86 80 60z" stroke="#333" fill="#fff"/>
        <g>
            <use xlink:href="#w" transform="matrix(1,0,0,1,987.22912637421,384) translate(0.04999999999999716 39.6)"/>
            <use xlink:href="#x" transform="matrix(1,0,0,1,987.22912637421,384) translate(67 39.6)"/>
        </g>
        <path d="M962.32 420.28l-580.6 395.07" stroke="#3a414a" fill="none"/>
        <path d="M962.73 420V420.56l-.16.1-.53-.77.7-.5z" stroke="#3a414a" stroke-width=".05" fill="#3a414a"/>
        <path d="M381.72 815.34l-2.9 1.98" stroke="#3a414a" fill="none"/>
        <path d="M1200 900c0 33.14-35.82 60-80 60s-80-26.86-80-60 35.82-60 80-60 80 26.86 80 60z" stroke="#333" fill="#fff"/>
        <g>
            <use xlink:href="#y" transform="matrix(1,0,0,1,1064,864) translate(5.049999999999997 39.6)"/>
            <use xlink:href="#z" transform="matrix(1,0,0,1,1064,864) translate(48 39.6)"/>
        </g>
        <path d="M1039 899.95l-625.35-69.5c.3-2.74-1.67-5.2-4.42-5.52-2.74-.3-5.2 1.67-5.52 4.42l-3.66-.4c.3-2.75-1.68-5.23-4.42-5.53-2.75-.3-5.22 1.67-5.52 4.42l-8.3-.93" stroke="#3a414a" fill="none"/>
        <path d="M1039.52 899.52l-.02.47V900.47l-.56-.07.1-.93z" stroke="#3a414a" stroke-width=".05" fill="#3a414a"/>
        <path d="M381.8 826.9l-3.5-.38" stroke="#3a414a" fill="none"/>
        <defs>
            <path d="M127-220V0H93v-220H8v-28h204v28h-85" id="A"/>
            <path d="M24-231v-30h32v30H24zM24 0v-190h32V0H24" id="B"/>
            <path d="M96-169c-40 0-48 33-48 73s9 75 48 75c24 0 41-14 43-38l32 2c-6 37-31 61-74 61-59 0-76-41-82-99-10-93 101-131 147-64 4 7 5 14 7 22l-32 3c-4-21-16-35-41-35" id="C"/>
            <path d="M16-82v-28h88v28H16" id="D"/>
            <path d="M141-36C126-15 110 5 73 4 37 3 15-17 15-53c-1-64 63-63 125-63 3-35-9-54-41-54-24 1-41 7-42 31l-33-3c5-37 33-52 76-52 45 0 72 20 72 64v82c-1 20 7 32 28 27v20c-31 9-61-2-59-35zM48-53c0 20 12 33 32 33 41-3 63-29 60-74-43 2-92-5-92 41" id="E"/>
            <path d="M100-194c62-1 85 37 85 99 1 63-27 99-86 99S16-35 15-95c0-66 28-99 85-99zM99-20c44 1 53-31 53-75 0-43-8-75-51-75s-53 32-53 75 10 74 51 75" id="F"/>
            <path d="M100-194c63 0 86 42 84 106H49c0 40 14 67 53 68 26 1 43-12 49-29l28 8c-11 28-37 45-77 45C44 4 14-33 15-96c1-61 26-98 85-98zm52 81c6-60-76-77-97-28-3 7-6 17-6 28h103" id="G"/>
            <g id="a">
                <use transform="matrix(0.06234567901234565,0,0,0.06234567901234565,0,0)" xlink:href="#A"/>
                <use transform="matrix(0.06234567901234565,0,0,0.06234567901234565,12.843209876543204,0)" xlink:href="#B"/>
                <use transform="matrix(0.06234567901234565,0,0,0.06234567901234565,17.768518518518512,0)" xlink:href="#C"/>
                <use transform="matrix(0.06234567901234565,0,0,0.06234567901234565,28.99074074074073,0)" xlink:href="#D"/>
                <use transform="matrix(0.06234567901234565,0,0,0.06234567901234565,36.40987654320986,0)" xlink:href="#A"/>
                <use transform="matrix(0.06234567901234565,0,0,0.06234567901234565,47.56975308641973,0)" xlink:href="#E"/>
                <use transform="matrix(0.06234567901234565,0,0,0.06234567901234565,60.03888888888886,0)" xlink:href="#C"/>
                <use transform="matrix(0.06234567901234565,0,0,0.06234567901234565,71.26111111111108,0)" xlink:href="#D"/>
                <use transform="matrix(0.06234567901234565,0,0,0.06234567901234565,78.6802469135802,0)" xlink:href="#A"/>
                <use transform="matrix(0.06234567901234565,0,0,0.06234567901234565,89.84012345679008,0)" xlink:href="#F"/>
                <use transform="matrix(0.06234567901234565,0,0,0.06234567901234565,102.3092592592592,0)" xlink:href="#G"/>
            </g>
            <path d="M143 4C61 4 22-44 18-125c-5-107 100-154 193-111 17 8 29 25 37 43l-32 9c-13-25-37-40-76-40-61 0-88 39-88 99 0 61 29 100 91 101 35 0 62-11 79-27v-45h-74v-28h105v86C228-13 192 4 143 4" id="H"/>
            <path d="M210-169c-67 3-38 105-44 169h-31v-121c0-29-5-50-35-48C34-165 62-65 56 0H25l-1-190h30c1 10-1 24 2 32 10-44 99-50 107 0 11-21 27-35 58-36 85-2 47 119 55 194h-31v-121c0-29-5-49-35-48" id="I"/>
            <g id="b">
                <use transform="matrix(0.06234567901234565,0,0,0.06234567901234565,0,0)" xlink:href="#H"/>
                <use transform="matrix(0.06234567901234565,0,0,0.06234567901234565,17.456790123456784,0)" xlink:href="#E"/>
                <use transform="matrix(0.06234567901234565,0,0,0.06234567901234565,29.925925925925917,0)" xlink:href="#I"/>
                <use transform="matrix(0.06234567901234565,0,0,0.06234567901234565,48.567283950617266,0)" xlink:href="#G"/>
            </g>
            <path d="M114-163C36-179 61-72 57 0H25l-1-190h30c1 12-1 29 2 39 6-27 23-49 58-41v29" id="J"/>
            <path d="M85-194c31 0 48 13 60 33l-1-100h32l1 261h-30c-2-10 0-23-3-31C134-8 116 4 85 4 32 4 16-35 15-94c0-66 23-100 70-100zm9 24c-40 0-46 34-46 75 0 40 6 74 45 74 42 0 51-32 51-76 0-42-9-74-50-73" id="K"/>
            <g id="c">
                <use transform="matrix(0.05,0,0,0.05,0,0)" xlink:href="#H"/>
                <use transform="matrix(0.05,0,0,0.05,14,0)" xlink:href="#J"/>
                <use transform="matrix(0.05,0,0,0.05,19.95,0)" xlink:href="#B"/>
                <use transform="matrix(0.05,0,0,0.05,23.9,0)" xlink:href="#K"/>
            </g>
            <path d="M185-189c-5-48-123-54-124 2 14 75 158 14 163 119 3 78-121 87-175 55-17-10-28-26-33-46l33-7c5 56 141 63 141-1 0-78-155-14-162-118-5-82 145-84 179-34 5 7 8 16 11 25" id="L"/>
            <path d="M9 0v-24l116-142H16v-24h144v24L44-24h123V0H9" id="M"/>
            <path d="M103-251c84 0 111 97 45 133-19 10-37 24-39 52H78c0-63 77-55 77-114 0-30-21-42-52-43-32 0-53 17-56 46l-32-2c7-45 34-72 88-72zM77 0v-35h34V0H77" id="N"/>
            <g id="d">
                <use transform="matrix(0.05,0,0,0.05,0,0)" xlink:href="#L"/>
                <use transform="matrix(0.05,0,0,0.05,12,0)" xlink:href="#B"/>
                <use transform="matrix(0.05,0,0,0.05,15.949999999999998,0)" xlink:href="#M"/>
                <use transform="matrix(0.05,0,0,0.05,24.95,0)" xlink:href="#G"/>
                <use transform="matrix(0.05,0,0,0.05,34.95,0)" xlink:href="#N"/>
            </g>
            <path d="M47-170H22l-4-78h33" id="O"/>
            <path d="M30-248c87 1 191-15 191 75 0 78-77 80-158 76V0H30v-248zm33 125c57 0 124 11 124-50 0-59-68-47-124-48v98" id="P"/>
            <path d="M135-143c-3-34-86-38-87 0 15 53 115 12 119 90S17 21 10-45l28-5c4 36 97 45 98 0-10-56-113-15-118-90-4-57 82-63 122-42 12 7 21 19 24 35" id="Q"/>
            <g id="e">
                <use transform="matrix(0.05,0,0,0.05,0,0)" xlink:href="#O"/>
                <use transform="matrix(0.05,0,0,0.05,3.4000000000000004,0)" xlink:href="#P"/>
                <use transform="matrix(0.05,0,0,0.05,15.4,0)" xlink:href="#E"/>
                <use transform="matrix(0.05,0,0,0.05,25.4,0)" xlink:href="#Q"/>
                <use transform="matrix(0.05,0,0,0.05,34.4,0)" xlink:href="#Q"/>
            </g>
            <path d="M234-2c-28 10-62 0-77-18C117 19 8 12 13-65c3-43 29-61 60-76-25-40-17-114 47-108 35 3 59 15 59 50 0 44-40 53-71 69 14 26 32 50 51 72 14-21 24-43 30-72l26 8c-9 33-21 57-38 82 13 13 33 22 57 15v23zM97-151c25-10 52-18 56-48-1-18-13-29-33-29-42 0-39 50-23 77zM42-66c-3 51 71 58 98 28-20-24-41-51-56-80-23 10-40 24-42 52" id="R"/>
            <use transform="matrix(0.05,0,0,0.05,0,0)" xlink:href="#R" id="f"/>
            <path d="M24 0v-261h32V0H24" id="S"/>
            <path d="M179-190L93 31C79 59 56 82 12 73V49c39 6 53-20 64-50L1-190h34L92-34l54-156h33" id="T"/>
            <g id="g">
                <use transform="matrix(0.05,0,0,0.05,0,0)" xlink:href="#P"/>
                <use transform="matrix(0.05,0,0,0.05,12,0)" xlink:href="#S"/>
                <use transform="matrix(0.05,0,0,0.05,15.949999999999998,0)" xlink:href="#E"/>
                <use transform="matrix(0.05,0,0,0.05,25.950000000000003,0)" xlink:href="#T"/>
                <use transform="matrix(0.05,0,0,0.05,34.95,0)" xlink:href="#O"/>
            </g>
            <g id="h">
                <use transform="matrix(0.05,0,0,0.05,0,0)" xlink:href="#F"/>
                <use transform="matrix(0.05,0,0,0.05,10,0)" xlink:href="#J"/>
            </g>
            <path d="M205 0l-28-72H64L36 0H1l101-248h38L239 0h-34zm-38-99l-47-123c-12 45-31 82-46 123h93" id="U"/>
            <path d="M177-190C167-65 218 103 67 71c-23-6-38-20-44-43l32-5c15 47 100 32 89-28v-30C133-14 115 1 83 1 29 1 15-40 15-95c0-56 16-97 71-98 29-1 48 16 59 35 1-10 0-23 2-32h30zM94-22c36 0 50-32 50-73 0-42-14-75-50-75-39 0-46 34-46 75s6 73 46 73" id="V"/>
            <path d="M117-194c89-4 53 116 60 194h-32v-121c0-31-8-49-39-48C34-167 62-67 57 0H25l-1-190h30c1 10-1 24 2 32 11-22 29-35 61-36" id="W"/>
            <path d="M59-47c-2 24 18 29 38 22v24C64 9 27 4 27-40v-127H5v-23h24l9-43h21v43h35v23H59v120" id="X"/>
            <g id="i">
                <use transform="matrix(0.05,0,0,0.05,0,0)" xlink:href="#O"/>
                <use transform="matrix(0.05,0,0,0.05,3.4000000000000004,0)" xlink:href="#U"/>
                <use transform="matrix(0.05,0,0,0.05,15.4,0)" xlink:href="#V"/>
                <use transform="matrix(0.05,0,0,0.05,25.4,0)" xlink:href="#E"/>
                <use transform="matrix(0.05,0,0,0.05,35.4,0)" xlink:href="#B"/>
                <use transform="matrix(0.05,0,0,0.05,39.35,0)" xlink:href="#W"/>
                <use transform="matrix(0.05,0,0,0.05,49.35,0)" xlink:href="#Q"/>
                <use transform="matrix(0.05,0,0,0.05,58.35,0)" xlink:href="#X"/>
            </g>
            <path d="M212-179c-10-28-35-45-73-45-59 0-87 40-87 99 0 60 29 101 89 101 43 0 62-24 78-52l27 14C228-24 195 4 139 4 59 4 22-46 18-125c-6-104 99-153 187-111 19 9 31 26 39 46" id="Y"/>
            <path d="M115-194c55 1 70 41 70 98S169 2 115 4C84 4 66-9 55-30l1 105H24l-1-265h31l2 30c10-21 28-34 59-34zm-8 174c40 0 45-34 45-75s-6-73-45-74c-42 0-51 32-51 76 0 43 10 73 51 73" id="Z"/>
            <path d="M84 4C-5 8 30-112 23-190h32v120c0 31 7 50 39 49 72-2 45-101 50-169h31l1 190h-30c-1-10 1-25-2-33-11 22-28 36-60 37" id="aa"/>
            <g id="j">
                <use transform="matrix(0.05,0,0,0.05,0,0)" xlink:href="#Y"/>
                <use transform="matrix(0.05,0,0,0.05,12.950000000000001,0)" xlink:href="#F"/>
                <use transform="matrix(0.05,0,0,0.05,22.950000000000003,0)" xlink:href="#I"/>
                <use transform="matrix(0.05,0,0,0.05,37.900000000000006,0)" xlink:href="#Z"/>
                <use transform="matrix(0.05,0,0,0.05,47.900000000000006,0)" xlink:href="#aa"/>
                <use transform="matrix(0.05,0,0,0.05,57.900000000000006,0)" xlink:href="#X"/>
                <use transform="matrix(0.05,0,0,0.05,62.900000000000006,0)" xlink:href="#G"/>
                <use transform="matrix(0.05,0,0,0.05,72.9,0)" xlink:href="#J"/>
                <use transform="matrix(0.05,0,0,0.05,78.85000000000001,0)" xlink:href="#O"/>
            </g>
            <g id="k">
                <use transform="matrix(0.06172839506172839,0,0,0.06172839506172839,0,0)" xlink:href="#P"/>
                <use transform="matrix(0.06172839506172839,0,0,0.06172839506172839,14.814814814814813,0)" xlink:href="#S"/>
                <use transform="matrix(0.06172839506172839,0,0,0.06172839506172839,19.691358024691354,0)" xlink:href="#E"/>
                <use transform="matrix(0.06172839506172839,0,0,0.06172839506172839,32.03703703703703,0)" xlink:href="#T"/>
                <use transform="matrix(0.06172839506172839,0,0,0.06172839506172839,43.14814814814814,0)" xlink:href="#G"/>
                <use transform="matrix(0.06172839506172839,0,0,0.06172839506172839,55.493827160493815,0)" xlink:href="#J"/>
            </g>
            <path d="M30 0v-248h187v28H63v79h144v27H63v87h162V0H30" id="ab"/>
            <g id="l">
                <use transform="matrix(0.05,0,0,0.05,0,0)" xlink:href="#ab"/>
                <use transform="matrix(0.05,0,0,0.05,12,0)" xlink:href="#W"/>
                <use transform="matrix(0.05,0,0,0.05,22,0)" xlink:href="#X"/>
                <use transform="matrix(0.05,0,0,0.05,27,0)" xlink:href="#G"/>
                <use transform="matrix(0.05,0,0,0.05,37,0)" xlink:href="#J"/>
            </g>
            <path d="M190 0L58-211 59 0H30v-248h39L202-35l-2-213h31V0h-41" id="ac"/>
            <g id="m">
                <use transform="matrix(0.05,0,0,0.05,0,0)" xlink:href="#ac"/>
                <use transform="matrix(0.05,0,0,0.05,12.950000000000001,0)" xlink:href="#E"/>
                <use transform="matrix(0.05,0,0,0.05,22.950000000000003,0)" xlink:href="#I"/>
                <use transform="matrix(0.05,0,0,0.05,37.900000000000006,0)" xlink:href="#G"/>
            </g>
            <g id="n">
                <use transform="matrix(0.05,0,0,0.05,0,0)" xlink:href="#L"/>
                <use transform="matrix(0.05,0,0,0.05,12,0)" xlink:href="#G"/>
                <use transform="matrix(0.05,0,0,0.05,22,0)" xlink:href="#S"/>
                <use transform="matrix(0.05,0,0,0.05,25.950000000000003,0)" xlink:href="#G"/>
                <use transform="matrix(0.05,0,0,0.05,35.95,0)" xlink:href="#C"/>
                <use transform="matrix(0.05,0,0,0.05,44.95,0)" xlink:href="#X"/>
            </g>
            <g id="o">
                <use transform="matrix(0.05,0,0,0.05,0,0)" xlink:href="#A"/>
                <use transform="matrix(0.05,0,0,0.05,10.3,0)" xlink:href="#B"/>
                <use transform="matrix(0.05,0,0,0.05,14.25,0)" xlink:href="#I"/>
                <use transform="matrix(0.05,0,0,0.05,29.200000000000003,0)" xlink:href="#G"/>
            </g>
            <g id="p">
                <use transform="matrix(0.05,0,0,0.05,0,0)" xlink:href="#Y"/>
                <use transform="matrix(0.05,0,0,0.05,12.950000000000001,0)" xlink:href="#F"/>
                <use transform="matrix(0.05,0,0,0.05,22.950000000000003,0)" xlink:href="#W"/>
                <use transform="matrix(0.05,0,0,0.05,32.95,0)" xlink:href="#X"/>
                <use transform="matrix(0.05,0,0,0.05,37.95,0)" xlink:href="#J"/>
                <use transform="matrix(0.05,0,0,0.05,43.900000000000006,0)" xlink:href="#F"/>
                <use transform="matrix(0.05,0,0,0.05,53.900000000000006,0)" xlink:href="#S"/>
            </g>
            <path d="M141 0L90-78 38 0H4l68-98-65-92h35l48 74 47-74h35l-64 92 68 98h-35" id="ad"/>
            <g id="q">
                <use transform="matrix(0.05,0,0,0.05,0,0)" xlink:href="#ab"/>
                <use transform="matrix(0.05,0,0,0.05,12,0)" xlink:href="#ad"/>
                <use transform="matrix(0.05,0,0,0.05,21,0)" xlink:href="#Z"/>
                <use transform="matrix(0.05,0,0,0.05,31,0)" xlink:href="#F"/>
                <use transform="matrix(0.05,0,0,0.05,41,0)" xlink:href="#J"/>
                <use transform="matrix(0.05,0,0,0.05,46.95,0)" xlink:href="#X"/>
            </g>
            <g id="r">
                <use transform="matrix(0.05,0,0,0.05,0,0)" xlink:href="#H"/>
                <use transform="matrix(0.05,0,0,0.05,14,0)" xlink:href="#E"/>
                <use transform="matrix(0.05,0,0,0.05,24,0)" xlink:href="#I"/>
                <use transform="matrix(0.05,0,0,0.05,38.95,0)" xlink:href="#G"/>
            </g>
            <path d="M240 0l2-218c-23 76-54 145-80 218h-23L58-218 59 0H30v-248h44l77 211c21-75 51-140 76-211h43V0h-30" id="ae"/>
            <path d="M143 0L79-87 56-68V0H24v-261h32v163l83-92h37l-77 82L181 0h-38" id="af"/>
            <g id="s">
                <use transform="matrix(0.05,0,0,0.05,0,0)" xlink:href="#ae"/>
                <use transform="matrix(0.05,0,0,0.05,14.950000000000001,0)" xlink:href="#E"/>
                <use transform="matrix(0.05,0,0,0.05,24.950000000000003,0)" xlink:href="#af"/>
                <use transform="matrix(0.05,0,0,0.05,33.95,0)" xlink:href="#G"/>
            </g>
            <path d="M108 0H70L1-190h34L89-25l56-165h34" id="ag"/>
            <g id="t">
                <use transform="matrix(0.05,0,0,0.05,0,0)" xlink:href="#ae"/>
                <use transform="matrix(0.05,0,0,0.05,14.950000000000001,0)" xlink:href="#F"/>
                <use transform="matrix(0.05,0,0,0.05,24.950000000000003,0)" xlink:href="#ag"/>
                <use transform="matrix(0.05,0,0,0.05,33.95,0)" xlink:href="#G"/>
            </g>
            <g id="u">
                <use transform="matrix(0.05,0,0,0.05,0,0)" xlink:href="#P"/>
                <use transform="matrix(0.05,0,0,0.05,12,0)" xlink:href="#S"/>
                <use transform="matrix(0.05,0,0,0.05,15.949999999999998,0)" xlink:href="#E"/>
                <use transform="matrix(0.05,0,0,0.05,25.950000000000003,0)" xlink:href="#T"/>
            </g>
            <g id="v">
                <use transform="matrix(0.05,0,0,0.05,0,0)" xlink:href="#U"/>
                <use transform="matrix(0.05,0,0,0.05,12,0)" xlink:href="#V"/>
                <use transform="matrix(0.05,0,0,0.05,22,0)" xlink:href="#E"/>
                <use transform="matrix(0.05,0,0,0.05,32,0)" xlink:href="#B"/>
                <use transform="matrix(0.05,0,0,0.05,35.95,0)" xlink:href="#W"/>
                <use transform="matrix(0.05,0,0,0.05,45.95,0)" xlink:href="#N"/>
            </g>
            <path d="M106-169C34-169 62-67 57 0H25v-261h32l-1 103c12-21 28-36 61-36 89 0 53 116 60 194h-32v-121c2-32-8-49-39-48" id="ah"/>
            <g id="w">
                <use transform="matrix(0.05,0,0,0.05,0,0)" xlink:href="#Y"/>
                <use transform="matrix(0.05,0,0,0.05,12.950000000000001,0)" xlink:href="#ah"/>
                <use transform="matrix(0.05,0,0,0.05,22.950000000000003,0)" xlink:href="#F"/>
                <use transform="matrix(0.05,0,0,0.05,32.95,0)" xlink:href="#F"/>
                <use transform="matrix(0.05,0,0,0.05,42.95,0)" xlink:href="#Q"/>
                <use transform="matrix(0.05,0,0,0.05,51.95,0)" xlink:href="#G"/>
            </g>
            <g id="x">
                <use transform="matrix(0.05,0,0,0.05,0,0)" xlink:href="#P"/>
                <use transform="matrix(0.05,0,0,0.05,12,0)" xlink:href="#B"/>
                <use transform="matrix(0.05,0,0,0.05,15.949999999999998,0)" xlink:href="#G"/>
                <use transform="matrix(0.05,0,0,0.05,25.950000000000003,0)" xlink:href="#C"/>
                <use transform="matrix(0.05,0,0,0.05,34.95,0)" xlink:href="#G"/>
            </g>
            <g id="y">
                <use transform="matrix(0.05,0,0,0.05,0,0)" xlink:href="#L"/>
                <use transform="matrix(0.05,0,0,0.05,12,0)" xlink:href="#X"/>
                <use transform="matrix(0.05,0,0,0.05,17,0)" xlink:href="#E"/>
                <use transform="matrix(0.05,0,0,0.05,27,0)" xlink:href="#J"/>
                <use transform="matrix(0.05,0,0,0.05,32.95,0)" xlink:href="#X"/>
            </g>
            <g id="z">
                <use transform="matrix(0.05,0,0,0.05,0,0)" xlink:href="#H"/>
                <use transform="matrix(0.05,0,0,0.05,14,0)" xlink:href="#E"/>
                <use transform="matrix(0.05,0,0,0.05,24,0)" xlink:href="#I"/>
                <use transform="matrix(0.05,0,0,0.05,38.95,0)" xlink:href="#G"/>
                <use transform="matrix(0.05,0,0,0.05,48.95,0)" xlink:href="#N"/>
            </g>
        </defs>
    </g>
</svg>